HIERARCHY
ROOT hip
{
	OFFSET 0.000000 0.000000 0.000000 
	CHANNELS 6 Xposition Yposition Zposition Xrotation Zrotation Yrotation
	JOINT abdomen
	{
		OFFSET 0.000000 3.402643 0.000000 
		CHANNELS 3 Xrotation Zrotation Yrotation
		JOINT chest
		{
			OFFSET 0.000000 8.438565 -0.680529 
			CHANNELS 3 Xrotation Zrotation Yrotation
			JOINT neck
			{
				OFFSET 0.000000 10.207942 -0.272212 
				CHANNELS 3 Xrotation Zrotation Yrotation
				JOINT head
				{
					OFFSET 0.000000 3.130431 0.000000 
					CHANNELS 3 Xrotation Zrotation Yrotation
					End Site
					{
						OFFSET 0.000000 3.130435 0.000000 
					}
				}
			}
			JOINT lCollar
			{
				OFFSET 3.470700 6.669187 -0.816635 
				CHANNELS 3 Yrotation Zrotation Xrotation
				JOINT lShldr
				{
					OFFSET 3.198488 0.000000 0.000000 
					CHANNELS 3 Zrotation Yrotation Xrotation
					JOINT lForeArm
					{
						OFFSET 10.139888 0.000000 0.000000 
						CHANNELS 3 Yrotation Zrotation Xrotation
						JOINT lHand
						{
							OFFSET 8.370511 0.000000 0.000000 
							CHANNELS 3 Zrotation Yrotation Xrotation
							End Site
							{
								OFFSET 4.083176 0.000000 0.000000 
							}
						}
					}
				}
			}
			JOINT rCollar
			{
				OFFSET -3.470700 6.669187 -0.816635 
				CHANNELS 3 Yrotation Zrotation Xrotation
				JOINT rShldr
				{
					OFFSET -3.198488 0.000000 0.000000 
					CHANNELS 3 Zrotation Yrotation Xrotation
					JOINT rForeArm
					{
						OFFSET -10.139888 0.000000 0.000000 
						CHANNELS 3 Yrotation Zrotation Xrotation
						JOINT rHand
						{
							OFFSET -8.370511 0.000000 0.000000 
							CHANNELS 3 Zrotation Yrotation Xrotation
							End Site
							{
								OFFSET -4.083176 0.000000 0.000000 
							}
						}
					}
				}
			}
		}
	}
	JOINT lThigh
	{
		OFFSET 5.308129 -1.633274 1.361059 
		CHANNELS 3 Xrotation Zrotation Yrotation
		JOINT lShin
		{
			OFFSET -2.041588 -20.007561 0.000000 
			CHANNELS 3 Xrotation Zrotation Yrotation
			JOINT lFoot
			{
				OFFSET 0.000000 -19.190928 -1.224953 
				CHANNELS 3 Xrotation Yrotation Zrotation
				End Site
				{
					OFFSET 0.000000 -2.449906 4.627600 
				}
			}
		}
	}
	JOINT rThigh
	{
		OFFSET -5.308129 -1.633274 1.361059 
		CHANNELS 3 Xrotation Zrotation Yrotation
		JOINT rShin
		{
			OFFSET 2.041588 -20.007561 0.000000 
			CHANNELS 3 Xrotation Zrotation Yrotation
			JOINT rFoot
			{
				OFFSET 0.000000 -19.190928 -1.224953 
				CHANNELS 3 Xrotation Yrotation Zrotation
				End Site
				{
					OFFSET 0.000000 -2.449906 4.627600 
				}
			}
		}
	}
}
MOTION
Frames: 13
Frame Time: 0.033333
-1.125069 46.603073 -6.402034 -12.012885 -0.792799 -1.091087 0.000000 0.000000 0.000000 5.742844 0.864779 -0.186334 5.743871 0.638594 -0.905468 3.270319 1.195974 -0.912395 -6.572464 11.744720 6.485389 12.284396 -50.244484 -26.636221 -38.501045 -9.280897 18.912289 -0.971979 -5.765131 -3.282457 4.289583 -10.160576 6.119779 -15.046531 63.806324 -27.698973 20.398802 8.557266 17.477959 -5.816750 13.587165 -4.118227 -3.301316 19.939299 14.485173 38.410011 -5.775894 -9.289466 -18.828451 0.924623 -5.691990 -4.511106 -11.568171 -10.286703 40.962646 3.817878 -1.148472 -21.999626 -1.048791 5.348890 
-1.168359 46.550728 -6.424937 -11.553321 -0.574066 -1.005703 0.000000 0.000000 0.000000 5.469007 0.554107 -0.278888 5.361730 0.733415 -0.934913 3.680582 1.187012 -0.756509 -5.004749 11.511633 6.035918 13.100779 -52.271278 -27.829346 -37.600128 -9.411198 19.049866 -0.667892 -5.923505 -3.301564 4.096645 -10.631728 5.894050 -14.522301 63.742905 -27.165300 20.774733 8.532121 17.137421 -5.920534 13.511954 -4.133783 -3.964933 19.813425 14.246785 38.643131 -5.834642 -9.234508 -18.885378 0.918516 -5.718670 -5.145648 -11.704679 -10.149169 41.404076 3.798634 -1.342927 -22.289936 -1.073756 5.426482 
-1.170749 46.551361 -6.432111 -11.611938 -0.583512 -1.071510 0.000000 0.000000 0.000000 5.517855 0.573502 -0.315597 5.420510 0.668089 -0.943093 3.514420 1.245074 -0.765143 -5.117991 11.468131 6.090121 12.959242 -51.964569 -27.663681 -37.879940 -9.343005 18.858143 -0.623539 -6.008956 -3.304995 4.119460 -10.636899 5.941888 -14.687132 63.727119 -27.262300 20.713779 8.519393 17.265959 -6.155783 13.477149 -4.165893 -3.886940 19.801060 14.255028 38.635685 -5.824796 -9.191689 -18.893942 0.941939 -5.760787 -5.105478 -11.720379 -10.180242 41.398289 3.817286 -1.219747 -22.264011 -1.058977 5.345144 
-1.181194 46.542297 -6.445702 -11.651003 -0.583430 -1.168769 0.000000 0.000000 0.000000 5.537343 0.524883 -0.320121 5.468811 0.726015 -0.897374 3.543797 1.206220 -0.673172 -5.084644 11.558862 6.104336 12.873761 -51.922882 -27.528259 -37.960293 -9.277039 18.864599 -0.564191 -6.181572 -3.309059 4.576718 -10.512444 6.004582 -14.013544 63.092819 -26.583488 21.269876 8.388013 16.953621 -6.054541 13.444561 -4.148624 -3.828493 19.810505 14.301505 38.665051 -5.834715 -9.168758 -18.912064 0.947875 -5.791072 -5.146095 -11.745499 -10.169928 41.493759 3.808638 -1.128503 -22.285971 -1.046675 5.285150 
-1.180188 46.535873 -6.461685 -11.650907 -0.535608 -1.237222 0.000000 0.000000 0.000000 5.537301 0.476283 -0.344372 5.556486 0.730670 -0.957648 3.192448 1.049989 -0.656076 -5.060033 11.601207 6.098325 12.863588 -51.833508 -27.410553 -38.192471 -9.224601 18.777300 -0.474327 -6.039355 -3.314007 3.896494 -10.352847 5.930950 -15.546209 64.144302 -28.291609 20.149004 8.506967 17.297684 -5.836597 13.732691 -4.130810 -3.857645 19.756018 14.276111 38.668793 -5.824866 -9.087872 -18.901283 0.951088 -5.811352 -5.213213 -11.789699 -10.168098 41.550861 3.779217 -1.027584 -22.306358 -1.043738 5.264702 
-1.188118 46.529587 -6.477286 -11.738782 -0.525877 -1.306747 0.000000 0.000000 0.000000 5.625187 0.466493 -0.334835 5.507528 0.756437 -0.970000 3.310045 0.787643 -0.590546 -5.044714 11.645865 6.184889 12.856473 -51.765892 -27.489700 -38.353603 -9.165689 18.610004 -0.431105 -6.105300 -3.316410 4.023138 -10.463502 6.034046 -15.187395 63.922333 -28.235695 20.394234 8.344428 17.417835 -5.574999 13.818048 -4.087267 -3.789331 19.735308 14.233958 38.703602 -5.805332 -8.998358 -18.899298 0.965121 -5.858753 -5.185052 -11.813514 -10.170041 41.607582 3.769006 -0.948879 -22.317535 -1.032331 5.226771 
-1.202084 46.527439 -6.501198 -11.748549 -0.525858 -1.375017 0.000000 0.000000 0.000000 5.644711 0.456759 -0.306341 5.507666 0.731322 -0.912878 3.466379 0.729480 -0.553855 -5.038704 11.557200 6.192546 12.803659 -51.754856 -27.440655 -38.455521 -9.111438 18.512390 -0.438009 -6.154618 -3.316857 4.210072 -10.719552 6.070337 -14.379011 63.735329 -27.559034 20.677172 8.288329 17.391186 -6.075079 13.599827 -4.153701 -3.769868 19.718067 14.254926 38.678871 -5.785778 -8.911479 -18.866859 0.973871 -5.920241 -5.233894 -11.783931 -10.128155 41.648949 3.759762 -0.987895 -22.289721 -1.049134 5.204746 
-1.218193 46.536633 -6.521710 -11.738679 -0.468508 -1.357729 0.000000 0.000000 0.000000 5.595859 0.427640 -0.319358 5.585943 0.620641 -0.886133 3.436769 0.962869 -0.624158 -5.059665 11.430511 6.149477 12.770591 -51.733883 -27.344398 -38.583786 -9.100949 18.375257 -0.561306 -6.230316 -3.309065 3.998117 -10.702957 6.011481 -14.563461 63.973438 -27.596340 20.575026 8.385125 17.413021 -6.021114 13.534810 -4.148794 -3.779866 19.649508 14.211696 38.572361 -5.785759 -8.833344 -18.767197 0.966620 -5.945435 -5.262875 -11.793859 -10.107572 41.631397 3.732483 -0.998391 -22.280167 -1.035184 5.190802 
-1.238830 46.526184 -6.537313 -11.709540 -0.554620 -1.330367 0.000000 0.000000 0.000000 5.556833 0.476267 -0.314913 5.644674 0.619792 -0.823069 3.348552 1.147502 -0.642622 -5.023230 11.485714 6.107677 12.771908 -51.771400 -27.197515 -38.704365 -9.173772 18.241890 -0.425323 -6.202787 -3.317462 4.085680 -10.520227 5.969276 -14.323958 63.720325 -27.168203 20.901176 8.365786 17.184477 -6.019780 13.515322 -4.148796 -3.887156 19.740818 14.144069 38.660019 -5.717318 -8.809747 -18.793127 0.988094 -6.022375 -5.320837 -11.634727 -10.013136 41.656990 3.710558 -1.121217 -22.287922 -1.044929 5.241245 
-1.248394 46.535248 -6.553172 -11.777963 -0.583162 -1.255367 0.000000 0.000000 0.000000 5.595897 0.476235 -0.314588 5.683515 0.686655 -0.831789 3.416908 1.157352 -0.612839 -5.140322 11.569363 6.166054 12.729008 -51.779194 -27.069857 -38.835308 -9.249129 17.706820 -0.331425 -6.128798 -3.333206 4.194943 -10.438860 6.013492 -13.800146 63.333740 -26.555887 21.399187 8.275372 17.144663 -5.994597 13.291846 -4.134001 -3.867519 19.750504 14.087335 38.615707 -5.658904 -8.845132 -18.772184 0.980024 -6.038069 -5.222663 -11.545120 -9.975147 41.574596 3.700225 -1.266968 -22.237312 -1.032152 5.271147 
-1.260979 46.537384 -6.573682 -11.807366 -0.630895 -1.215782 0.000000 0.000000 0.000000 5.625237 0.524804 -0.270488 5.713092 0.719280 -0.827049 3.368140 1.118363 -0.639559 -5.181158 11.563462 6.191975 12.874511 -51.790733 -27.057379 -38.843956 -9.239494 17.942978 -0.268598 -6.193584 -3.336803 3.937370 -10.296437 6.007968 -14.340917 63.621525 -27.059870 21.008953 8.345054 17.098038 -5.885097 13.572967 -4.131676 -3.877206 19.803488 14.029140 38.607330 -5.619740 -8.928228 -18.741821 0.990904 -6.064691 -5.204403 -11.471232 -9.935076 41.545544 3.710047 -1.294897 -22.218369 -1.033712 5.258802 
-1.268906 46.544056 -6.589035 -11.817155 -0.640431 -1.184378 0.000000 0.000000 0.000000 5.644815 0.573378 -0.294796 5.723089 0.659611 -0.784993 3.289873 1.186288 -0.647411 -5.115022 11.421520 6.194495 12.946529 -51.773018 -27.135443 -38.962349 -9.160724 18.173866 -0.422431 -6.251531 -3.317465 4.050827 -10.441606 6.038898 -14.131216 63.400978 -26.875355 21.276346 8.331461 16.850222 -5.829815 13.488451 -4.117006 -3.887054 19.803934 13.998458 38.542545 -5.580654 -8.918426 -18.681831 0.990896 -6.086169 -5.183454 -11.437057 -9.944462 41.486721 3.729379 -1.331457 -22.169949 -1.041178 5.253762 
-1.266642 46.544678 -6.603632 -11.709683 -0.621556 -1.130948 0.000000 0.000000 0.000000 5.566696 0.583174 -0.323925 5.664443 0.662896 -0.794650 3.348623 1.108603 -0.599983 -5.086814 11.487778 6.129795 12.626875 -51.816818 -27.053141 -39.056530 -9.052855 18.451221 -0.517503 -6.306013 -3.312542 4.161642 -10.473598 5.981854 -13.780217 63.147488 -26.546076 21.493662 8.310748 16.632181 -5.927728 13.472341 -4.132033 -4.043386 19.746695 13.889593 38.549774 -5.531992 -8.855321 -18.670576 0.996690 -6.116166 -5.291904 -11.518590 -10.011676 41.498180 3.807932 -1.244317 -22.153008 -1.023784 5.185489 
